# File created by Blade
# Date/Time:  Wed Apr 08 17:17:01 2015
# Frame Rate: 120.000 fps
#------------------------------------------------------
:FULLY-SPECIFIED
:DEGREES
1284
root 8.132279 37.018327 6.013268 188.195439 -33.555234 -158.109573
Spine 7.793797 -3.173501 -1.625294
Head -7.368857 6.884259 19.856007
LeftShoulder -7.620499 16.052768 19.354072
LeftArm 13.387723 32.498316 -73.647637
LeftForeArm 32.899701 -0.000000 24.979426
LeftHand -8.652326 -0.000000 -23.464061
LeftHandThumb1 -26.253704 0.000000 33.147579
RightShoulder -45.674199 -51.030678 36.208024
RightArm 43.478171 -23.054605 67.223894
RightForeArm 26.403505 -0.000000 1.834913
RightHand -6.651137 -0.000000 9.439598
RightHandThumb1 -24.326973 -0.000000 -32.862282
LeftUpLeg -33.622082 39.225897 -7.160276
LeftLeg 18.186319 -0.000000 -0.000000
LeftFoot -20.191463 17.279134 -12.032565
LeftToeBase 3.941376 -0.000000 -0.000000
RightUpLeg 20.558802 -14.881644 -18.609738
RightLeg 135.850252 -0.000000 -0.000000
RightFoot 39.276431 5.095610 22.646065
RightToeBase 9.191433 -0.000000 -0.000000
1285
root 8.151787 37.025781 6.041498 188.483618 -33.066204 -158.080330
Spine 7.809939 -3.007576 -1.678876
Head -7.523863 7.147437 19.771523
LeftShoulder -7.685912 16.075723 19.328138
LeftArm 13.295240 32.554526 -73.681421
LeftForeArm 32.876118 -0.000000 24.982850
LeftHand -8.569409 0.000000 -23.318402
LeftHandThumb1 -26.253704 0.000000 33.147579
RightShoulder -45.647285 -51.051960 36.140740
RightArm 43.423063 -23.069095 67.273076
RightForeArm 26.329908 -0.000000 1.870790
RightHand -6.566268 -0.000000 9.310750
RightHandThumb1 -24.326973 -0.000000 -32.862282
LeftUpLeg -33.985752 39.302134 -7.303039
LeftLeg 18.222471 -0.000000 -0.000000
LeftFoot -20.249465 17.649903 -12.078191
LeftToeBase 3.868495 -0.000000 -0.000000
RightUpLeg 20.552194 -14.581979 -18.559646
RightLeg 135.915502 -0.000000 -0.000000
RightFoot 39.371244 5.283301 22.657914
RightToeBase 8.847425 -0.000000 -0.000000
1286
root 8.171355 37.034488 6.067568 188.759602 -32.564070 -158.028021
Spine 7.815396 -2.833938 -1.734910
Head -7.634722 7.413570 19.728484
LeftShoulder -7.723213 16.092201 19.316744
LeftArm 13.169970 32.630251 -73.733621
LeftForeArm 32.750938 -0.000000 24.950704
LeftHand -8.544321 0.000000 -23.195365
LeftHandThumb1 -26.253704 0.000000 33.147579
RightShoulder -45.622512 -51.075534 36.091081
RightArm 43.363421 -23.133838 67.253515
RightForeArm 26.446353 -0.000000 1.949518
RightHand -6.572837 -0.000000 9.347833
RightHandThumb1 -24.326973 -0.000000 -32.862282
LeftUpLeg -34.332929 39.350694 -7.396216
LeftLeg 18.260699 -0.000000 -0.000000
LeftFoot -20.293713 18.057853 -12.103428
LeftToeBase 3.720944 -0.000000 -0.000000
RightUpLeg 20.536826 -14.257423 -18.483106
RightLeg 135.992883 -0.000000 -0.000000
RightFoot 39.443131 5.444636 22.717721
RightToeBase 8.696443 -0.000000 -0.000000
1287
root 8.192445 37.043412 6.092391 189.030565 -32.040191 -157.950218
Spine 7.797881 -2.667353 -1.779065
Head -7.698969 7.661720 19.664635
LeftShoulder -7.811526 16.173872 19.265012
LeftArm 13.135722 32.669435 -73.737496
LeftForeArm 32.671469 -0.000000 24.864331
LeftHand -8.539470 -0.000000 -23.292645
LeftHandThumb1 -26.253704 0.000000 33.147579
RightShoulder -45.627677 -51.140459 36.059823
RightArm 43.301518 -23.172095 67.258641
RightForeArm 26.477437 -0.000000 2.068712
RightHand -6.421525 -0.000000 9.335783
RightHandThumb1 -24.326973 -0.000000 -32.862282
LeftUpLeg -34.694505 39.426126 -7.473449
LeftLeg 18.308936 -0.000000 -0.000000
LeftFoot -20.356017 18.467458 -12.136284
LeftToeBase 3.609156 -0.000000 -0.000000
RightUpLeg 20.509501 -13.920686 -18.380389
RightLeg 136.055899 -0.000000 -0.000000
RightFoot 39.563339 5.616096 22.708179
RightToeBase 8.547261 -0.000000 -0.000000
